<?xml version="1.0" standalone="no"?>
<!DOCTYPE svg PUBLIC "-//W3C//DTD SVG 20010904//EN"
 "http://www.w3.org/TR/2001/REC-SVG-20010904/DTD/svg10.dtd">
<svg version="1.0" xmlns="http://www.w3.org/2000/svg"
 width="900.000000pt" height="234.000000pt" viewBox="0 0 900.000000 234.000000"
 preserveAspectRatio="xMidYMid meet">
<metadata>
Created by potrace 1.10, written by Peter Selinger 2001-2011
</metadata>
<g transform="translate(0.000000,234.000000) scale(0.100000,-0.100000)"
fill="#900000" stroke="none">
<path d="M972 2150 c-19 -8 -22 -16 -20 -51 2 -33 -3 -45 -21 -60 -30 -25 -63
-24 -86 1 -25 27 -36 25 -73 -13 -33 -34 -41 -70 -19 -84 31 -20 37 -38 24
-74 -15 -42 -25 -50 -57 -44 -41 8 -55 -9 -55 -65 0 -55 11 -70 56 -70 31 0
47 -16 55 -57 5 -23 1 -34 -14 -44 -39 -28 -36 -54 9 -99 47 -46 44 -57 -16
-62 l-40 -3 0 -64 0 -64 -58 -31 -57 -30 -38 37 c-21 20 -45 37 -53 37 -21 0
-129 -109 -129 -131 0 -9 41 -51 74 -75 l30 -21 -22 -28 c-12 -15 -22 -40 -22
-56 0 -35 -25 -50 -72 -43 -19 4 -45 1 -57 -5 -19 -10 -21 -20 -21 -91 0 -77
1 -80 28 -94 15 -8 40 -12 55 -9 33 6 67 -20 67 -51 0 -12 6 -33 14 -47 15
-29 12 -34 -47 -72 -40 -26 -35 -59 19 -123 56 -65 82 -69 130 -23 32 31 37
32 79 6 56 -33 68 -46 62 -66 -9 -34 26 -25 47 12 10 17 39 54 65 80 44 46 45
49 27 62 -11 8 -34 17 -51 21 -50 9 -136 83 -169 145 -26 47 -30 65 -30 139
-1 72 3 93 26 140 31 64 72 106 146 149 48 28 61 31 136 31 63 0 95 -5 131
-21 58 -26 125 -93 156 -156 l22 -46 29 34 c16 19 47 54 71 78 32 33 38 45 27
49 -19 7 -100 92 -100 105 0 6 12 25 26 44 42 55 18 92 -85 129 -30 11 -37 10
-62 -9 -18 -13 -29 -30 -29 -45 0 -24 -1 -25 -63 -20 -81 7 -106 22 -114 72
-6 41 -33 76 -58 76 -22 0 -18 38 5 45 50 16 100 -22 100 -76 0 -36 2 -39 39
-49 49 -13 69 -5 78 29 3 14 11 29 17 33 16 11 106 10 106 -2 0 -5 9 -18 21
-29 18 -16 26 -18 52 -9 55 18 63 31 47 78 -13 40 -13 42 17 72 26 25 34 28
51 19 51 -27 79 -8 88 62 6 45 6 46 -30 63 -33 16 -36 21 -36 61 0 40 2 44 30
49 49 10 55 27 33 87 l-19 52 -48 -3 c-35 -1 -55 3 -68 14 -22 21 -24 57 -3
74 23 19 18 36 -22 69 -50 41 -86 41 -103 1 -8 -20 -19 -30 -34 -30 -48 0 -65
12 -78 54 -12 38 -15 41 -53 43 -22 1 -50 -2 -63 -7z m198 -179 c101 -48 140
-109 140 -220 0 -76 -14 -113 -65 -165 -53 -55 -92 -71 -170 -71 -116 1 -188
56 -229 173 -21 61 -18 88 19 167 26 54 54 81 123 116 41 22 137 21 182 0z"/>
<path d="M3338 1429 c-40 -23 -3 -78 42 -64 22 7 27 44 8 63 -14 14 -27 15
-50 1z"/>
<path d="M3800 1433 c-36 -14 -39 -49 -6 -64 48 -22 93 36 47 61 -11 5 -21 10
-23 9 -2 0 -10 -3 -18 -6z"/>
<path d="M5602 1428 c-32 -32 2 -79 43 -60 30 14 33 47 6 62 -25 13 -34 13
-49 -2z"/>
<path d="M6827 1433 c-11 -10 -8 -61 4 -68 5 -4 21 -4 35 -1 18 5 24 13 24 35
0 34 -42 56 -63 34z"/>
<path d="M2523 1407 c-57 -39 -77 -74 -81 -143 -4 -53 0 -69 19 -101 27 -44
35 -52 71 -76 58 -37 190 -10 219 46 7 12 17 25 23 29 6 4 11 40 11 86 0 71
-3 82 -28 115 -38 50 -75 67 -144 66 -43 0 -67 -6 -90 -22z m166 -63 c80 -67
29 -214 -75 -214 -74 0 -129 82 -105 159 24 80 116 109 180 55z"/>
<path d="M4698 1273 c-2 -87 0 -168 4 -180 7 -22 13 -23 108 -23 l101 0 -3 33
-3 32 -70 0 -70 0 -3 43 -3 42 61 0 c61 0 61 0 58 28 -3 26 -6 27 -61 30 l-58
3 3 42 3 42 50 2 c28 1 60 2 73 2 18 1 22 7 22 31 l0 30 -104 0 -105 0 -3
-157z"/>
<path d="M2883 1318 c-44 -47 -31 -100 32 -129 59 -28 72 -44 46 -58 -14 -8
-28 -8 -47 0 -31 11 -74 5 -74 -12 0 -25 46 -48 96 -49 41 0 55 5 74 24 12 14
23 37 23 51 0 30 -38 75 -64 75 -22 0 -61 39 -52 53 3 5 27 7 54 4 37 -5 49
-3 53 10 20 50 -100 76 -141 31z"/>
<path d="M3127 1329 c-9 -5 -24 -24 -33 -41 -15 -29 -15 -32 4 -57 10 -14 40
-37 66 -50 25 -13 46 -29 46 -36 0 -19 -27 -26 -56 -15 -61 23 -96 -3 -53 -40
36 -29 118 -28 147 3 43 46 24 96 -49 131 -24 11 -46 29 -47 40 -3 16 2 18 49
15 46 -4 54 -1 57 15 2 11 -4 26 -14 33 -21 15 -91 17 -117 2z"/>
<path d="M3347 1326 c-12 -12 -15 -39 -14 -133 l2 -118 28 -3 c31 -4 30 -10
27 138 -2 114 -13 145 -43 116z"/>
<path d="M3567 1326 c-14 -11 -24 -11 -48 -3 -23 9 -32 9 -37 0 -4 -7 -8 -65
-7 -130 l0 -118 30 0 30 0 1 76 c1 90 20 129 64 129 42 0 52 -21 50 -102 -4
-108 -4 -108 30 -108 l30 0 0 104 c0 98 -2 106 -26 135 -20 24 -34 31 -62 31
-21 0 -45 -7 -55 -14z"/>
<path d="M3800 1330 c-9 -6 -13 -41 -14 -124 -1 -65 1 -122 5 -127 3 -6 17 -9
30 -7 23 3 24 6 27 108 2 58 0 115 -2 126 -7 25 -27 36 -46 24z"/>
<path d="M4017 1326 c-14 -11 -24 -11 -48 -3 -23 9 -32 9 -37 0 -4 -7 -8 -65
-7 -130 l0 -118 30 0 30 0 1 72 c1 82 16 121 52 130 46 11 57 -7 58 -93 2
-120 1 -114 34 -114 l30 0 0 108 c0 101 -1 109 -25 135 -29 30 -86 37 -118 13z"/>
<path d="M4272 1320 c-26 -22 -52 -78 -52 -114 0 -74 76 -138 135 -116 39 15
45 13 45 -15 0 -33 -37 -47 -101 -39 l-49 7 0 -31 c0 -26 4 -31 36 -37 59 -11
108 3 143 39 l32 33 -3 142 -3 143 -80 4 c-67 3 -84 0 -103 -16z m116 -52 c18
-18 15 -98 -5 -120 -21 -24 -44 -23 -77 3 -51 40 -25 129 38 129 17 0 37 -5
44 -12z"/>
<path d="M4992 1328 c-8 -8 -12 -52 -12 -134 0 -107 2 -122 18 -126 36 -10 42
1 42 81 0 70 3 81 25 105 18 20 33 26 53 24 l27 -3 3 -103 3 -103 32 3 32 3
-4 110 c-3 94 -6 113 -24 133 -25 27 -81 30 -115 6 -21 -15 -25 -15 -41 0 -21
19 -24 19 -39 4z"/>
<path d="M5327 1320 c-16 -13 -32 -41 -40 -68 -12 -40 -12 -53 1 -90 21 -63
56 -81 142 -70 20 2 24 -1 22 -17 -6 -34 -21 -40 -88 -38 l-65 3 3 -28 c3 -23
9 -28 46 -36 58 -12 115 6 143 45 19 26 22 46 25 157 2 70 0 133 -5 140 -5 9
-36 15 -83 18 -65 4 -78 2 -101 -16z m109 -48 c6 -4 14 -23 18 -43 17 -93 -62
-136 -108 -59 -14 25 -16 36 -6 65 6 18 16 36 23 39 19 7 61 6 73 -2z"/>
<path d="M5607 1333 c-4 -3 -7 -64 -7 -135 l0 -129 28 3 27 3 3 119 c2 78 -1
123 -9 132 -12 15 -31 18 -42 7z"/>
<path d="M5746 1324 c-3 -9 -6 -69 -6 -134 0 -122 3 -132 43 -122 14 4 17 17
17 86 0 73 3 85 23 104 13 12 33 22 44 22 37 0 45 -23 41 -117 l-3 -88 33 -3
34 -3 -4 114 c-3 108 -4 116 -28 136 -26 21 -94 29 -105 11 -3 -5 -17 -10 -30
-10 -13 0 -27 5 -30 10 -9 15 -22 12 -29 -6z"/>
<path d="M6088 1315 c-42 -28 -54 -66 -45 -143 7 -67 51 -101 128 -102 59 0
89 18 89 53 0 15 -9 16 -68 11 -65 -6 -69 -5 -85 19 -9 13 -13 27 -10 31 4 3
41 6 84 6 69 0 78 2 84 20 9 30 -13 87 -42 110 -36 28 -90 26 -135 -5z m110
-62 c3 -21 -1 -23 -42 -23 -49 0 -65 12 -45 36 8 10 25 14 48 12 29 -2 37 -8
39 -25z"/>
<path d="M6371 1311 c-99 -92 -46 -241 86 -241 55 0 100 27 90 54 -5 13 -16
15 -67 9 -50 -5 -64 -3 -80 12 -39 35 -26 44 68 47 81 3 87 5 90 25 4 26 -23
80 -52 105 -34 29 -98 24 -135 -11z m117 -58 c3 -21 0 -23 -47 -23 -43 0 -51
3 -51 18 0 28 10 33 55 30 33 -2 41 -7 43 -25z"/>
<path d="M6627 1333 c-4 -3 -7 -64 -7 -135 l0 -129 33 3 32 3 -4 73 c-4 84 11
116 59 127 23 5 30 12 30 31 0 31 -24 41 -56 23 -20 -10 -29 -10 -44 -1 -22
14 -34 15 -43 5z"/>
<path d="M6830 1321 c-5 -11 -10 -69 -10 -129 0 -117 7 -136 46 -122 20 8 21
14 18 125 -3 109 -12 145 -35 145 -5 0 -13 -9 -19 -19z"/>
<path d="M6975 1330 c-4 -6 -8 -64 -10 -130 -3 -105 -2 -121 13 -129 33 -17
42 -2 42 70 0 81 18 126 55 135 50 12 55 3 55 -106 l0 -101 33 3 32 3 -3 110
c-3 95 -6 113 -25 133 -25 27 -76 29 -113 6 -23 -15 -26 -15 -43 0 -21 19 -27
20 -36 6z"/>
<path d="M7300 1312 c-47 -47 -50 -143 -7 -199 17 -22 84 -35 106 -21 25 15
45 0 35 -26 -10 -26 -46 -36 -104 -29 l-52 6 4 -29 c2 -24 9 -31 39 -38 55
-13 108 1 146 39 l34 34 -3 142 -3 143 -83 3 c-80 3 -85 2 -112 -25z m124 -48
c38 -38 7 -134 -44 -134 -50 0 -80 91 -43 132 20 22 66 24 87 2z"/>
<path d="M1745 1236 c-51 -19 -55 -25 -49 -64 5 -33 3 -39 -24 -54 -39 -23
-61 -23 -88 3 -28 26 -52 15 -79 -35 -22 -40 -37 -42 -45 -6 -3 12 -14 29 -26
36 -18 13 -23 8 -73 -67 -30 -44 -63 -87 -75 -97 -42 -34 -74 -81 -69 -101 6
-24 -24 -129 -44 -152 -7 -8 -13 -20 -13 -26 0 -6 -20 -29 -45 -52 -48 -44
-109 -75 -170 -87 -28 -5 -42 -16 -63 -48 -14 -22 -59 -74 -99 -114 -40 -41
-73 -82 -73 -91 0 -13 16 -22 60 -34 33 -10 69 -17 79 -17 26 0 51 37 51 77 0
43 19 59 81 66 57 7 89 -9 89 -44 0 -20 36 -49 62 -49 17 0 99 40 124 61 21
17 17 48 -11 85 -14 18 -25 39 -25 46 1 7 21 35 45 62 l44 49 51 -22 c59 -25
72 -20 95 36 8 18 18 33 22 33 4 -1 17 -19 28 -42 29 -58 48 -68 78 -40 29 27
47 28 81 1 23 -18 25 -25 20 -59 -7 -43 3 -53 69 -65 45 -9 67 6 67 45 0 30
15 40 61 40 22 0 40 -10 64 -35 l33 -36 35 21 c55 33 61 44 43 81 -22 44 -21
51 14 84 30 29 30 29 61 11 30 -18 31 -18 54 4 25 24 38 76 24 101 -5 9 -22
22 -39 27 -25 9 -30 16 -30 42 0 45 15 66 50 73 33 7 36 19 20 79 -13 46 -38
62 -75 48 -34 -13 -30 -14 -60 17 -28 32 -32 55 -10 73 22 18 18 48 -7 61 -13
7 -29 18 -36 26 -23 22 -55 15 -83 -19 -26 -32 -27 -32 -65 -17 -30 11 -40 21
-42 42 -2 15 -13 34 -25 42 -24 17 -21 17 -62 1z m162 -183 c54 -24 111 -81
134 -132 49 -112 -4 -246 -123 -306 -193 -97 -406 108 -319 307 51 117 199
180 308 131z m-382 -85 c-1 -64 -9 -78 -51 -82 -28 -3 -29 -6 -29 -52 0 -46 2
-49 30 -54 36 -6 56 -41 53 -90 -2 -28 -8 -36 -25 -38 -18 -3 -23 1 -23 20 0
26 -33 68 -53 68 -7 0 -24 10 -39 23 -25 21 -26 25 -20 87 7 63 8 65 42 74 47
14 70 35 70 67 0 30 8 41 30 37 11 -3 15 -17 15 -60z"/>
</g>
</svg>
